# xmcd
#
# Track frame offsets:
#	150
#	50998
#	75922
#	119343
#	161241
#	190182
#	232339
#
# Disc length: 3369 seconds
#
# Revision: 1
# Processed by: cddbd v1.4PL0 Copyright (c) Steve Scherf et al.
# Submitted via: EasyCDDAExtractor 6.0.0.1
#
DISCID=5e0d2707
DTITLE=Flavio Minardo - Kunda
DYEAR=1900
DGENRE=
TTITLE0=La terassa
TTITLE1=Kunda
TTITLE2=Morgan
TTITLE3=Orizzonti
TTITLE4=Sundarino
TTITLE5=New
TTITLE6=Lisboa
EXTD=
EXTT0=
EXTT1=
EXTT2=
EXTT3=
EXTT4=
EXTT5=
EXTT6=
PLAYORDER=
